<?xml version="1.0" encoding="UTF-8" standalone="no"?>
<svg
   xmlns:dc="http://purl.org/dc/elements/1.1/"
   xmlns:cc="http://creativecommons.org/ns#"
   xmlns:rdf="http://www.w3.org/1999/02/22-rdf-syntax-ns#"
   xmlns:svg="http://www.w3.org/2000/svg"
   xmlns="http://www.w3.org/2000/svg"
   viewBox="0 0 388.34668 98.666664"
   height="98.666664"
   width="388.34668"
   xml:space="preserve"
   id="svg2"
   version="1.1"><metadata
     id="metadata8"><rdf:RDF><cc:Work
         rdf:about=""><dc:format>image/svg+xml</dc:format><dc:type
           rdf:resource="http://purl.org/dc/dcmitype/StillImage" /></cc:Work></rdf:RDF></metadata><defs
     id="defs6" /><g
     transform="matrix(1.3333333,0,0,-1.3333333,0,98.666667)"
     id="g10"><g
       transform="scale(0.1)"
       id="g12"><path
         id="path14"
         style="fill:#066da5;fill-opacity:1;fill-rule:nonzero;stroke:none"
         d="m 2323.25,364.078 c 0,3.793 -0.76,7.41 -2.28,10.844 -1.53,3.437 -3.54,6.465 -6.05,9.086 -2.51,2.625 -5.46,4.652 -8.85,6.105 -3.41,1.446 -7.08,2.168 -11.02,2.168 -5.55,0 -10.57,-1.445 -15.04,-4.343 L 2119.4,282.449 v 211.524 c 0,7.957 -2.74,14.687 -8.2,20.207 -5.46,5.511 -12.04,8.265 -19.74,8.265 -7.88,0 -14.55,-2.754 -20,-8.265 -5.47,-5.52 -8.2,-12.25 -8.2,-20.207 V 117.027 c 0,-7.773 2.73,-14.464 8.2,-20.0622 5.45,-5.6093 12.12,-8.4101 20,-8.4101 7.7,0 14.28,2.8008 19.74,8.4101 5.46,5.5982 8.2,12.2892 8.2,20.0622 v 97.899 l 32.76,21.695 124.09,-140.746 c 5.01,-4.8789 11.28,-7.3203 18.8,-7.3203 3.94,0 7.61,0.7226 11.02,2.168 3.39,1.4453 6.34,3.4804 8.85,6.1015 2.51,2.625 4.52,5.6528 6.05,9.0818 1.52,3.438 2.28,7.055 2.28,10.852 0,7.414 -2.59,14.008 -7.79,19.797 l -115.49,131.254 112.54,73.757 c 7.16,4.883 10.74,12.387 10.74,22.512 z m -466.28,-56.269 c 8.6,8.582 18.63,15.367 30.09,20.336 11.46,4.968 23.72,7.457 36.79,7.457 11.82,0 22.74,-1.989 32.77,-5.965 10.03,-3.977 19.61,-9.852 28.74,-17.625 5.37,-4.34 11.46,-6.508 18.26,-6.508 8.06,0 14.73,2.711 20.01,8.133 5.29,5.426 7.92,12.203 7.92,20.336 0,8.496 -3.22,15.64 -9.66,21.425 -27.58,24.586 -60.26,36.883 -98.04,36.883 -41.53,0 -76.99,-14.824 -106.36,-44.472 -29.36,-29.657 -44.04,-65.45 -44.04,-107.395 0,-41.941 14.68,-77.738 44.04,-107.387 29.37,-29.648 64.83,-44.4723 106.36,-44.4723 37.61,0 70.28,12.2933 98.04,36.8793 5.9,5.968 8.86,12.925 8.86,20.882 0,8.137 -2.64,14.872 -7.93,20.204 -5.28,5.332 -11.95,8 -20.01,8 -6.79,-0.184 -12.7,-2.172 -17.72,-5.965 -8.96,-7.774 -18.44,-13.606 -28.47,-17.492 -10.03,-3.891 -20.95,-5.833 -32.77,-5.833 -13.07,0 -25.33,2.485 -36.79,7.461 -11.46,4.969 -21.49,11.747 -30.09,20.336 -8.59,8.59 -15.35,18.668 -20.27,30.239 -4.93,11.57 -7.39,23.953 -7.39,37.148 0,13.199 2.46,25.582 7.39,37.152 4.92,11.575 11.68,21.653 20.27,30.243 z M 1678.49,203.672 c -4.92,-11.481 -11.64,-21.559 -20.15,-30.238 -8.51,-8.676 -18.49,-15.547 -29.94,-20.614 -11.47,-5.058 -23.73,-7.59 -36.8,-7.59 -13.25,0 -25.6,2.532 -37.07,7.59 -11.45,5.067 -21.39,11.891 -29.81,20.481 -8.41,8.586 -15.08,18.664 -20.01,30.234 -4.92,11.57 -7.38,23.867 -7.38,36.879 0,13.02 2.46,25.313 7.38,36.887 4.93,11.566 11.6,21.644 20.01,30.234 8.42,8.586 18.36,15.414 29.81,20.473 11.47,5.062 23.82,7.594 37.07,7.594 13.07,0 25.33,-2.532 36.8,-7.594 11.45,-5.059 21.43,-11.93 29.94,-20.61 8.51,-8.679 15.23,-18.757 20.15,-30.234 4.92,-11.48 7.38,-23.73 7.38,-36.75 0,-13.012 -2.46,-25.262 -7.38,-36.742 z m 19.47,144.137 c -29.73,29.648 -65.18,44.472 -106.36,44.472 -41.54,0 -76.99,-14.824 -106.36,-44.472 -29.37,-29.657 -44.05,-65.45 -44.05,-107.395 0,-41.941 14.68,-77.738 44.05,-107.387 29.37,-29.648 64.82,-44.4723 106.36,-44.4723 41.18,0 76.63,14.8243 106.36,44.4723 29.37,29.286 44.05,65.082 44.05,107.387 -0.18,20.973 -3.89,40.41 -11.15,58.305 -7.25,17.902 -18.21,34.258 -32.9,49.09 z M 1345.7,203.672 c -4.92,-11.481 -11.64,-21.559 -20.14,-30.238 -8.51,-8.676 -18.49,-15.547 -29.95,-20.614 -11.46,-5.058 -23.72,-7.59 -36.8,-7.59 -13.25,0 -25.6,2.532 -37.06,7.59 -11.46,5.067 -21.4,11.891 -29.82,20.481 -8.41,8.586 -15.08,18.664 -20.01,30.234 -4.92,11.57 -7.38,23.867 -7.38,36.879 0,13.02 2.46,25.313 7.38,36.887 4.93,11.566 11.6,21.644 20.01,30.234 8.42,8.586 18.36,15.414 29.82,20.473 11.46,5.062 23.81,7.594 37.06,7.594 13.08,0 25.34,-2.532 36.8,-7.594 11.46,-5.059 21.44,-11.93 29.95,-20.61 8.5,-8.679 15.22,-18.757 20.14,-30.234 4.93,-11.48 7.39,-23.73 7.39,-36.75 0,-13.012 -2.46,-25.262 -7.39,-36.742 z m 35.32,318.773 c -8.06,0 -14.73,-2.664 -20.01,-7.996 -5.28,-5.332 -7.92,-12.066 -7.92,-20.207 V 358.926 c -27.22,22.234 -58.65,33.355 -94.28,33.355 -41.54,0 -76.99,-14.824 -106.36,-44.472 -29.36,-29.657 -44.05,-65.45 -44.05,-107.395 0,-41.941 14.69,-77.738 44.05,-107.387 29.37,-29.648 64.82,-44.4723 106.36,-44.4723 41.19,0 76.64,14.8243 106.36,44.4723 29.37,29.286 44.05,65.082 44.05,107.387 v 253.828 c 0,8.141 -2.73,14.875 -8.19,20.207 -5.46,5.332 -12.13,7.996 -20.01,7.996 z M 2905.03,373.297 c -5.02,4.883 -11.33,8.723 -18.94,11.527 -7.6,2.805 -15.93,4.746 -24.98,5.828 -9.04,1.086 -17.5,1.629 -25.38,1.629 -17.9,0 -34.73,-2.894 -50.48,-8.679 -15.77,-5.786 -30.36,-14.098 -43.79,-24.95 v 5.426 c 0,7.774 -2.73,14.418 -8.19,19.93 -5.47,5.512 -12.04,8.273 -19.74,8.273 -7.88,0 -14.55,-2.761 -20.01,-8.273 -5.46,-5.512 -8.2,-12.156 -8.2,-19.93 v -247.32 c 0,-7.774 2.74,-14.418 8.2,-19.9338 5.46,-5.5156 12.13,-8.2695 20.01,-8.2695 7.7,0 14.27,2.7539 19.74,8.2695 5.46,5.5158 8.19,12.1598 8.19,19.9338 v 123.656 c 0,13.199 2.47,25.582 7.39,37.152 4.92,11.575 11.64,21.653 20.15,30.243 8.49,8.582 18.48,15.367 29.94,20.336 11.46,4.968 23.73,7.457 36.79,7.457 13.26,0 25.52,-2.258 36.8,-6.778 4.47,-1.988 8.42,-2.984 11.82,-2.984 3.94,0 7.6,0.723 11.01,2.168 3.4,1.445 6.36,3.48 8.86,6.101 2.51,2.625 4.52,5.653 6.04,9.082 1.53,3.442 2.29,7.145 2.29,11.125 0,7.774 -2.51,14.102 -7.52,18.981 z m -491.52,-104.68 c 2.86,9.946 7.25,19.028 13.16,27.258 5.91,8.227 12.89,15.277 20.95,21.152 8.05,5.871 16.92,10.438 26.59,13.696 9.67,3.25 19.6,4.879 29.81,4.879 10.21,0 20.1,-1.629 29.68,-4.879 9.58,-3.258 18.35,-7.825 26.32,-13.696 7.97,-5.875 14.95,-12.925 20.95,-21.152 5.99,-8.23 10.52,-17.312 13.56,-27.258 z m 196.87,79.192 c -29.72,29.648 -65.17,44.472 -106.36,44.472 -41.54,0 -77,-14.824 -106.36,-44.472 -29.37,-29.657 -44.05,-65.45 -44.05,-107.395 0,-41.941 14.68,-77.738 44.05,-107.387 29.36,-29.648 64.82,-44.4723 106.36,-44.4723 37.78,0 70.55,12.2933 98.31,36.8793 5.37,5.605 8.05,12.382 8.05,20.336 0,8.14 -2.64,14.875 -7.93,20.207 -5.27,5.332 -11.94,7.996 -20,7.996 -6.99,-0.172 -13.16,-2.528 -18.53,-7.047 -8.42,-7.231 -17.55,-12.653 -27.41,-16.274 -9.84,-3.613 -20.67,-5.422 -32.49,-5.422 -10.39,0 -20.37,1.629 -29.95,4.883 -9.58,3.254 -18.35,7.817 -26.32,13.696 -7.96,5.875 -14.91,12.925 -20.82,21.152 -5.9,8.223 -10.38,17.309 -13.42,27.25 h 212.71 c 7.88,0 14.55,2.672 20.02,8.004 5.46,5.332 8.18,12.066 8.18,20.199 0,20.973 -3.67,40.453 -11,58.441 -7.34,17.989 -18.36,34.309 -33.04,48.954 z M 712.551,500 h -110 V 400 h 110 z m -130,0 h -110 V 400 h 110 z m -130,0 h -110 V 400 h 110 z m -130,0 h -110 V 400 h 110 z m -130,0 H 82.5508 V 400 H 192.551 Z m 130,120 h -110 V 520 h 110 z m 130,0 h -110 V 520 h 110 z m 130,0 h -110 V 520 h 110 z m 0,120 h -110 V 640 h 110 z M 921.422,472.258 c -5.457,40.004 -27.77,74.699 -68.324,106.062 l -23.321,15.547 -15.562,-23.34 c -19.918,-30.035 -29.871,-71.656 -26.613,-111.566 1.472,-14.039 6.086,-39.156 20.539,-61.231 -14.45,-7.769 -42.836,-18.476 -80.59,-17.73 L 4.10156,380 2.69141,371.672 C -4.10938,331.563 -3.96484,206.395 77.3008,110.195 139.066,37.0742 231.676,0 352.551,0 c 262.023,0 455.883,120.613 546.664,339.867 35.652,-0.719 112.565,-0.199 152.055,75.231 1.02,1.722 3.38,6.257 10.28,20.554 l 3.79,7.832 -22.21,14.832 c -24.04,16.063 -79.208,21.954 -121.708,13.942" /><path
         id="path16"
         style="fill:#066da5;fill-opacity:1;fill-rule:nonzero;stroke:none"
         d="m 2828.77,113.629 h 2.33 c 2.74,0 4.95,0.906 4.95,3.113 0,1.953 -1.43,3.262 -4.55,3.262 -1.3,0 -2.21,-0.137 -2.73,-0.274 z m -0.13,-12.09 h -4.94 v 21.316 c 1.95,0.391 4.68,0.657 8.19,0.657 4.03,0 5.85,-0.657 7.41,-1.563 1.17,-0.91 2.08,-2.597 2.08,-4.679 0,-2.344 -1.82,-4.161 -4.42,-4.942 v -0.262 c 2.07,-0.773 3.25,-2.336 3.9,-5.195 0.64,-3.254 1.04,-4.551 1.56,-5.332 h -5.33 c -0.65,0.781 -1.04,2.723 -1.69,5.203 -0.39,2.336 -1.69,3.379 -4.42,3.379 h -2.34 z m -13.13,11.18 c 0,-9.492 7.02,-17.0315 16.64,-17.0315 9.35,0 16.25,7.5395 16.25,16.8945 0,9.492 -6.9,17.168 -16.38,17.168 -9.49,0 -16.51,-7.676 -16.51,-17.031 z m 38.35,0 c 0,-12.09 -9.49,-21.5823 -21.84,-21.5823 -12.22,0 -21.97,9.4923 -21.97,21.5823 0,11.828 9.75,21.32 21.97,21.32 12.35,0 21.84,-9.492 21.84,-21.32" /></g></g></svg>