<?xml version="1.0" encoding="UTF-8" standalone="no"?>
<!-- Generator: Adobe Illustrator 16.0.5, SVG Export Plug-In . SVG Version: 6.00 Build 0)  -->

<svg
   xmlns:dc="http://purl.org/dc/elements/1.1/"
   xmlns:cc="http://creativecommons.org/ns#"
   xmlns:rdf="http://www.w3.org/1999/02/22-rdf-syntax-ns#"
   xmlns:svg="http://www.w3.org/2000/svg"
   xmlns="http://www.w3.org/2000/svg"
   xmlns:sodipodi="http://sodipodi.sourceforge.net/DTD/sodipodi-0.dtd"
   xmlns:inkscape="http://www.inkscape.org/namespaces/inkscape"
   version="1.1"
   id="Layer_1"
   x="0px"
   y="0px"
   width="200"
   height="49.143833"
   viewBox="0 0 200 49.143832"
   enable-background="new 0 0 186 45"
   xml:space="preserve"
   inkscape:version="0.48.5 r10040"
   sodipodi:docname="logo-color.svg"><metadata
   id="metadata3040"><rdf:RDF><cc:Work
       rdf:about=""><dc:format>image/svg+xml</dc:format><dc:type
         rdf:resource="http://purl.org/dc/dcmitype/StillImage" /></cc:Work></rdf:RDF></metadata><defs
   id="defs3038" /><sodipodi:namedview
   pagecolor="#ffffff"
   bordercolor="#666666"
   borderopacity="1"
   objecttolerance="10"
   gridtolerance="10"
   guidetolerance="10"
   inkscape:pageopacity="0"
   inkscape:pageshadow="2"
   inkscape:window-width="1053"
   inkscape:window-height="1041"
   id="namedview3036"
   showgrid="false"
   fit-margin-left="0.5"
   fit-margin-bottom="0.5"
   fit-margin-top="0.5"
   fit-margin-right="0.5"
   inkscape:zoom="2.3082833"
   inkscape:cx="130.43524"
   inkscape:cy="-7.7701085"
   inkscape:window-x="859"
   inkscape:window-y="-21"
   inkscape:window-maximized="0"
   inkscape:current-layer="Layer_1" />
<g
   id="Logo_2_"
   transform="matrix(1.0698867,0,0,1.0698867,0.50855909,0.5085569)">
	<g
   id="Symbol_3_">
		<linearGradient
   id="pb_outer_4_"
   gradientUnits="userSpaceOnUse"
   x1="147.562"
   y1="6.5781002"
   x2="179.3922"
   y2="38.408298">
			<stop
   offset="0.2"
   style="stop-color:#C869A8"
   id="stop3027" />
			<stop
   offset="0.5"
   style="stop-color:#6E7EBB"
   id="stop3029" />
			<stop
   offset="0.8"
   style="stop-color:#00BCF1"
   id="stop3031" />
		</linearGradient>
		<path
   id="pb_outer_3_"
   d="m 163.476,-0.008 c -12.432,0 -22.515,10.076 -22.515,22.503 0,12.422 10.083,22.496 22.515,22.496 12.438,0 22.517,-10.074 22.517,-22.496 -0.001,-12.427 -10.079,-22.503 -22.517,-22.503 z m 0,44.48 c -12.145,0 -21.993,-9.842 -21.993,-21.98 0,-12.141 9.848,-21.98 21.993,-21.98 12.147,0 21.997,9.839 21.997,21.98 0,12.138 -9.85,21.98 -21.997,21.98 z M 162.262,3.273 c 0,-0.235 0.123,-0.374 0.318,-0.374 0.309,-0.013 0.586,-0.02 0.895,-0.02 10.839,0 19.628,8.774 19.628,19.612 0,10.832 -8.789,19.613 -19.628,19.613 -10.835,0 -19.624,-8.781 -19.624,-19.613 0,-8.451 5.339,-15.642 12.829,-18.406 0.182,-0.071 0.348,0.025 0.422,0.236 0.08,0.209 0.02,0.39 -0.168,0.461 -7.202,2.66 -12.338,9.583 -12.338,17.708 0,10.422 8.453,18.869 18.879,18.869 10.429,0 18.882,-8.447 18.882,-18.869 0,-10.43 -8.453,-18.875 -18.882,-18.875 -0.299,0 -0.602,0.007 -0.901,0.019 -0.197,10e-4 -0.312,-0.139 -0.312,-0.361 z m 0.661,31.184 c 0.156,0.006 0.396,0.008 0.553,0.008 6.618,0 11.98,-5.359 11.98,-11.971 0,-6.613 -5.363,-11.973 -11.98,-11.973 -0.154,0 -0.398,0.002 -0.553,0.008 -0.417,0 -0.661,-0.308 -0.661,-0.784 0,-0.479 0.244,-0.785 0.661,-0.785 0.174,-0.006 0.379,-0.009 0.553,-0.009 7.485,0 13.554,6.061 13.554,13.543 0,7.479 -6.068,13.541 -13.554,13.541 -0.176,0 -0.379,-0.006 -0.553,-0.012 -0.417,0 -0.661,-0.311 -0.661,-0.783 0,-0.479 0.244,-0.783 0.661,-0.783 z m 0.553,3.539 c 8.57,0 15.514,-6.941 15.514,-15.502 0,-8.567 -6.944,-15.509 -15.514,-15.509 -0.217,0 -0.484,0.006 -0.704,0.013 -0.318,0 -0.51,-0.233 -0.51,-0.604 0,-0.373 0.191,-0.605 0.51,-0.605 0.237,-0.008 0.469,-0.012 0.704,-0.012 9.241,0 16.73,7.48 16.73,16.718 0,9.23 -7.489,16.715 -16.73,16.715 -0.234,0 -0.471,-0.006 -0.704,-0.016 -0.32,0 -0.51,-0.23 -0.51,-0.605 0,-0.371 0.189,-0.604 0.51,-0.604 0.217,0.005 0.487,0.011 0.704,0.011 z m -6.606,-1.471 c 0.289,0.137 0.334,0.436 0.18,0.766 -0.158,0.332 -0.407,0.467 -0.696,0.33 -5.678,-2.67 -9.604,-8.449 -9.604,-15.127 0,-6.684 3.92,-12.444 9.584,-15.122 0.289,-0.131 0.565,-10e-4 0.719,0.326 0.158,0.341 0.086,0.637 -0.203,0.77 -5.256,2.479 -8.883,7.827 -8.889,14.026 -0.003,6.191 3.642,11.545 8.909,14.031 z m -0.025,-4.061 c 0.346,0.232 0.383,0.623 0.117,1.021 -0.262,0.396 -0.641,0.516 -0.987,0.283 -3.788,-2.518 -6.049,-6.736 -6.049,-11.275 0,-4.541 2.261,-8.763 6.049,-11.279 0.344,-0.235 0.725,-0.109 0.989,0.287 0.264,0.396 0.227,0.79 -0.119,1.017 -3.348,2.228 -5.35,5.956 -5.35,9.975 0,4.012 2.002,7.745 5.35,9.971 z m -1.382,-4.009 c -1.257,-1.688 -1.978,-3.748 -1.978,-5.959 0,-2.154 0.686,-4.227 1.976,-5.965 0.303,-0.395 0.782,-0.41 1.237,-0.059 0.456,0.34 0.571,0.805 0.272,1.203 -1.042,1.4 -1.593,3.066 -1.593,4.82 0,1.752 0.555,3.416 1.597,4.816 0.297,0.396 0.182,0.859 -0.274,1.203 -0.455,0.349 -0.936,0.339 -1.237,-0.059 z"
   style="fill:url(#pb_outer_4_)"
   inkscape:connector-curvature="0" />
		<path
   id="pb_inner_3_"
   d="m 159.911,15.33 c -0.841,0.236 -1.386,-0.379 -1.386,-1.042 V 4.073 c 0,-0.629 0.463,-0.993 1.176,-0.993 0.713,0 1.171,0.363 1.171,0.993 v 8.538 c 0.833,-0.217 1.706,-0.337 2.605,-0.337 5.656,0 10.239,4.585 10.239,10.238 0,5.65 -4.583,10.229 -10.239,10.229 l -0.219,-0.008 c -0.624,0 -0.997,-0.463 -0.997,-1.18 0,-0.711 0.373,-1.174 0.997,-1.174 0.07,0 0.145,0.004 0.219,0.004 4.286,0 7.867,-3.463 7.867,-7.889 0,-4.482 -3.661,-7.901 -7.808,-7.901 -2.003,0 -2.779,0.496 -3.625,0.737 z m 7.98,2.75 c -1.176,-1.178 -2.744,-1.82 -4.411,-1.82 -2.257,0 -4.81,1.154 -4.946,2.221 -0.021,0.166 -0.008,1.117 -0.008,1.117 v 18.193 c 0,0.707 0.459,1.041 1.174,1.041 0.67,0 1.173,-0.314 1.173,-1.041 V 19.474 c 0.692,-0.623 1.606,-0.879 2.605,-0.879 2.15,0 3.897,1.75 3.897,3.898 0,2.145 -1.748,3.893 -3.897,3.893 -0.029,0 -0.201,0.004 -0.229,0.004 -0.618,0 -0.987,0.455 -0.987,1.168 0,0.703 0.369,1.164 0.987,1.164 0.043,0 0.184,0.01 0.229,0.01 1.669,0 3.237,-0.65 4.413,-1.832 1.179,-1.18 1.83,-2.744 1.83,-4.406 -0.001,-1.664 -0.652,-3.235 -1.83,-4.414 z"
   inkscape:connector-curvature="0"
   style="fill:#3e53a4" />
	</g>
	<path
   id="Wordmark_3_"
   d="m 125.504,28.111 c 0.784,0.561 2.126,0.906 3.52,0.906 2.908,0 4.646,-1.49 4.646,-3.912 0,-1.902 -1.004,-2.879 -3.717,-3.783 -1.808,-0.586 -2.566,-1.148 -2.566,-2.027 0,-1.123 0.956,-1.686 2.345,-1.686 1.249,0 2.445,0.318 3.522,0.977 V 16.9 c -0.711,-0.537 -2.201,-0.928 -3.471,-0.928 -2.689,0 -4.327,1.246 -4.327,3.371 0,1.637 0.954,2.785 3.25,3.541 2.199,0.709 3.031,1.174 3.031,2.369 0,1.293 -1.026,2.102 -2.713,2.102 -1.347,0 -2.761,-0.391 -3.52,-0.953 v 1.709 z m -10.988,-6.789 c 0.221,-2.273 1.44,-3.689 3.616,-3.689 2.226,0 3.348,1.221 3.422,3.689 h -7.038 z m 8.675,5.152 c -0.977,0.49 -2.542,0.832 -4.057,0.832 -3.031,0 -4.569,-1.439 -4.692,-4.348 h 8.994 c 0.025,-0.342 0.074,-1.025 0.074,-1.295 0,-3.518 -1.785,-5.691 -5.23,-5.691 -3.862,0 -5.818,2.834 -5.818,6.547 0,4.176 2.201,6.498 6.428,6.498 1.687,0 3.301,-0.295 4.301,-0.879 v -1.664 z m -15.253,2.248 3.592,-12.457 h -1.931 l -2.589,9.795 -2.885,-9.795 h -2.152 l -2.859,9.916 -2.566,-9.916 h -2.101 l 3.59,12.457 h 2.03 l 2.982,-9.895 2.859,9.895 h 2.03 z M 87.676,27.306 c -2.493,0 -3.887,-1.904 -3.887,-4.787 0,-2.932 1.395,-4.838 3.887,-4.838 2.492,0 3.885,1.906 3.885,4.787 0,2.934 -1.417,4.838 -3.885,4.838 z m 0,1.711 c 3.958,0 5.939,-2.885 5.939,-6.523 0,-3.666 -1.711,-6.521 -5.939,-6.521 -3.959,0 -5.94,2.881 -5.94,6.521 -0.001,3.664 1.712,6.523 5.94,6.523 z M 70.644,18.343 c 0.88,-0.465 1.784,-0.662 2.956,-0.662 2.689,0 4.229,1.783 4.229,4.422 0,3.348 -1.833,5.203 -5.034,5.203 -0.88,0 -1.491,-0.098 -2.151,-0.342 v -8.621 z m -1.956,10.012 c 1.197,0.391 2.494,0.662 3.935,0.662 4.521,0 7.258,-2.516 7.258,-6.938 0,-3.812 -2.346,-6.107 -6.086,-6.107 -1.099,0 -2.126,0.195 -3.152,0.637 v -6.23 h -1.956 v 17.976 z m -12.188,6.693 2.372,-6.326 4.96,-12.457 h -2.15 L 57.895,26.451 54.178,16.265 h -2.223 l 4.961,12.457 -2.396,6.326 H 56.5 z M 41.881,21.322 c 0.219,-2.273 1.442,-3.689 3.618,-3.689 2.224,0 3.349,1.221 3.422,3.689 h -7.04 z m 8.677,5.152 c -0.978,0.49 -2.542,0.832 -4.057,0.832 -3.031,0 -4.571,-1.439 -4.692,-4.348 h 8.994 c 0.023,-0.342 0.073,-1.025 0.073,-1.295 0,-3.518 -1.784,-5.691 -5.23,-5.691 -3.862,0 -5.817,2.834 -5.817,6.547 0,4.176 2.2,6.498 6.428,6.498 1.688,0 3.3,-0.295 4.302,-0.879 v -1.664 z m -12.832,2.248 v -8.158 c 0,-3.516 -2.127,-4.592 -4.839,-4.592 -1.833,0 -4.009,0.465 -5.597,1.051 v 11.699 h 1.956 V 18.294 c 0.807,-0.318 2.077,-0.562 3.177,-0.562 2.272,0 3.347,0.781 3.347,3.516 v 7.475 h 1.956 z M 25.409,27.013 c -0.66,0.195 -1.345,0.316 -2.201,0.316 -0.88,0 -1.54,-0.244 -1.54,-1.855 v -7.572 h 3.275 v -1.637 h -3.275 v -3.077 h -1.93 v 3.077 H 17.66 v 1.637 h 2.078 v 7.939 c 0,2.246 1.172,3.176 3.006,3.176 1.025,0 1.906,-0.146 2.665,-0.439 V 27.013 z M 14.566,13.921 c 0.709,0 1.271,-0.562 1.271,-1.27 0,-0.709 -0.562,-1.295 -1.271,-1.295 -0.733,0 -1.295,0.586 -1.295,1.295 0,0.708 0.562,1.27 1.295,1.27 z m 0.953,2.344 h -1.954 v 12.457 h 1.954 V 16.265 z M 1.948,18.464 c 0.83,-0.537 1.784,-0.783 2.958,-0.783 2.688,0 4.228,1.783 4.228,4.422 0,3.348 -1.833,5.203 -5.059,5.203 -0.88,0 -1.491,-0.098 -2.126,-0.342 v -8.5 z m 0,16.584 v -6.303 c 0.635,0.172 1.32,0.271 2.028,0.271 4.449,0 7.209,-2.516 7.209,-6.938 0,-3.785 -2.37,-6.107 -6.084,-6.107 -1.76,0 -3.592,0.537 -5.109,1.807 v 17.27 h 1.956 z"
   inkscape:connector-curvature="0"
   style="fill:#4e4e4e" />
</g>
</svg>